<?xml version="1.0" encoding="UTF-8" standalone="no"?>
<!-- Created with Inkscape (http://www.inkscape.org/) -->

<svg
   xmlns:dc="http://purl.org/dc/elements/1.1/"
   xmlns:cc="http://creativecommons.org/ns#"
   xmlns:rdf="http://www.w3.org/1999/02/22-rdf-syntax-ns#"
   xmlns:svg="http://www.w3.org/2000/svg"
   xmlns="http://www.w3.org/2000/svg"
   xmlns:sodipodi="http://sodipodi.sourceforge.net/DTD/sodipodi-0.dtd"
   xmlns:inkscape="http://www.inkscape.org/namespaces/inkscape"
   width="2000"
   height="2000"
   viewBox="0 0 529.16665 529.16668"
   version="1.1"
   id="svg8"
   inkscape:version="0.92.3 (2405546, 2018-03-11)"
   sodipodi:docname="DIVIDER 24.svg">
  <defs
     id="defs2" />
  <sodipodi:namedview
     id="base"
     pagecolor="#ffffff"
     bordercolor="#666666"
     borderopacity="1.0"
     inkscape:pageopacity="0.0"
     inkscape:pageshadow="2"
     inkscape:zoom="0.175"
     inkscape:cx="4085.7054"
     inkscape:cy="367.09559"
     inkscape:document-units="px"
     inkscape:current-layer="layer1"
     showgrid="false"
     inkscape:snap-global="false"
     units="px"
     inkscape:window-width="1920"
     inkscape:window-height="1057"
     inkscape:window-x="-8"
     inkscape:window-y="-8"
     inkscape:window-maximized="1"
     showguides="true"
     inkscape:guide-bbox="true" />
  <metadata
     id="metadata5">
    <rdf:RDF>
      <cc:Work
         rdf:about="">
        <dc:format>image/svg+xml</dc:format>
        <dc:type
           rdf:resource="http://purl.org/dc/dcmitype/StillImage" />
        <dc:title></dc:title>
      </cc:Work>
    </rdf:RDF>
  </metadata>
  <g
     inkscape:label="Layer 1"
     inkscape:groupmode="layer"
     id="layer1"
     transform="translate(0,232.16668)">
    <path
       style="color:#000000;font-style:normal;font-variant:normal;font-weight:normal;font-stretch:normal;font-size:medium;line-height:normal;font-family:sans-serif;font-variant-ligatures:normal;font-variant-position:normal;font-variant-caps:normal;font-variant-numeric:normal;font-variant-alternates:normal;font-feature-settings:normal;text-indent:0;text-align:start;text-decoration:none;text-decoration-line:none;text-decoration-style:solid;text-decoration-color:#000000;letter-spacing:normal;word-spacing:normal;text-transform:none;writing-mode:lr-tb;direction:ltr;text-orientation:mixed;dominant-baseline:auto;baseline-shift:baseline;text-anchor:start;white-space:normal;shape-padding:0;clip-rule:nonzero;display:inline;overflow:visible;visibility:visible;opacity:1;isolation:auto;mix-blend-mode:normal;color-interpolation:sRGB;color-interpolation-filters:linearRGB;solid-color:#000000;solid-opacity:1;vector-effect:none;fill:#1a1a1a;fill-opacity:1;fill-rule:nonzero;stroke:none;stroke-width:0.99999988;stroke-linecap:round;stroke-linejoin:round;stroke-miterlimit:4;stroke-dasharray:none;stroke-dashoffset:0;stroke-opacity:1;color-rendering:auto;image-rendering:auto;shape-rendering:auto;text-rendering:auto;enable-background:accumulate"
       d="m 316.03859,6.8827263 c -0.195,0 -0.3889,0.12705 -0.5377,0.38062 l -4.8379,8.2551597 h -3.8405 l -3.1634,-5.39775 c -0.2104,-0.3590997 -0.5493,-0.3590997 -0.7597,0 l -3.162,5.39775 h -56.5781 c 0.4187,-1.65234 1.5271,-2.81326 2.7874,-3.05089 a 1.3424562,1.420614 35.942393 0 0 1.2022,-1.61428 1.3424562,1.420614 35.942393 0 0 -1.5604,-1.1305597 c -2.7079,0.5105797 -4.6637,2.9250697 -5.1994,5.7957297 h -3.9742 l -7.1672,-4.20053 c -0.507,-0.29716 -1.323,-0.29716 -1.8302,0 l -8.8783,5.20271 c -0.507,0.29708 -0.507,0.77487 0,1.07194 l 8.8783,5.20272 c 0.5072,0.29717 1.3232,0.29717 1.8302,0 l 7.1784,-4.20686 h 3.939 c 0.4904,2.89494 2.3921,5.26783 5.0981,5.79572 a 1.3424562,1.420614 35.942393 1 0 0.6564,-2.73531 c -1.2603,-0.24592 -2.4168,-1.44127 -2.9018,-3.06041 h 56.5148 l 3.1668,5.40407 c 0.2104,0.3591 0.5491,0.3591 0.7597,0 l 3.1681,-5.40407 h 3.8325 l 4.8412,8.26157 c 0.2971,0.50704 0.7764,0.50704 1.0736,0 l 4.8411,-8.26157 h 2.7813 1.0515 l 3.1682,5.40407 c 0.2104,0.3591 0.549,0.3591 0.7596,0 l 3.1667,-5.40407 h 56.5179 c -0.4841,1.61921 -1.6421,2.81277 -2.9035,3.05878 a 1.4219694,1.3437372 54.057607 0 0 0.6568,2.74173 c 2.7054,-0.52788 4.6069,-2.90477 5.0979,-5.80051 h 3.9372 l 7.1785,4.20686 c 0.5073,0.29717 1.323,0.29717 1.8299,0 l 8.8784,-5.20272 c 0.5072,-0.29706 0.5072,-0.77486 0,-1.07194 l -8.8784,-5.20271 c -0.5069,-0.29716 -1.3226,-0.29716 -1.8299,0 l -7.1673,4.20053 h -3.9724 c -0.5356,-2.86969 -2.4911,-5.28033 -5.1994,-5.7910197 a 1.420614,1.3424562 54.057607 0 0 -1.5602,1.1306197 1.420614,1.3424562 54.057607 0 0 1.2017,1.60951 c 1.2597,0.23746 2.3669,1.39887 2.7863,3.05089 h -56.5784 l -3.1618,-5.39775 c -0.2104,-0.3590997 -0.5491,-0.3590997 -0.7596,0 l -3.1635,5.39775 h -1.0562 -2.7843 l -4.8381,-8.2551597 c -0.149,-0.25358 -0.3421,-0.38062 -0.5359,-0.38062 z"
       id="path1491"
       inkscape:connector-curvature="0" />
  </g>
</svg>
